<svg xmlns="http://www.w3.org/2000/svg" width="64" height="64" viewBox="0 0 64 64">
  <path d="M0 0l8 8 8-8H0zm16 0l8 8 8-8H16zm16 0l8 8 8-8H32zm16 0l8 8 8-8H48zm8 8l-8 8 8 8 8-8-8-8zm0 16l-8 8 8 8 8-8-8-8zm0 16l-8 8 8 8 8-8-8-8zm0 16l-8 8h16l-8-8zm-8 8l-8-8-8 8h16zm-16 0l-8-8-8 8h16zm-16 0l-8-8-8 8h16zm-8-8l8-8-8-8-8 8 8 8zm0-16l8-8-8-8-8 8 8 8zm0-16l8-8-8-8-8 8 8 8zm8-8l8 8 8-8-8-8-8 8zm16 0l8 8 8-8-8-8-8 8zm8 8l-8 8 8 8 8-8-8-8zm0 16l-8 8 8 8 8-8-8-8zm-8 8l-8-8-8 8 8 8 8-8zm-8-8l8-8-8-8-8 8 8 8z" fill="#333"/>
  <path d="M0 0v16l8-8-8-8zm8 8l8 8 8-8-8-8-8 8zm16 0l8 8 8-8-8-8-8 8zm16 0l8 8 8-8-8-8-8 8zm16 0l8 8V0l-8 8zm8 8l-8 8 8 8V16zm0 16l-8 8 8 8V32zm0 16l-8 8 8 8V48zm-8 8l-8-8-8 8 8 8 8-8zm-16 0l-8-8-8 8 8 8 8-8zm-16 0l-8-8-8 8 8 8 8-8zM8 56l-8-8v16l8-8zm-8-8l8-8-8-8v16zm0-16l8-8-8-8v16zm8-8l8 8 8-8-8-8-8 8zm16 0l8 8 8-8-8-8-8 8zm16 0l8 8 8-8-8-8-8 8zm8 8l-8 8 8 8 8-8-8-8zm-8 8l-8-8-8 8 8 8 8-8zm-16 0l-8-8-8 8 8 8 8-8z" fill="#1a1a1a"/>
</svg>
